<svg xmlns="http://www.w3.org/2000/svg" viewBox="0 0 64 64" id="Gun"><path d="M63.82 8.65a.975.975 0 0 0-1.35-.24l-.84.59-1.26-1.79a.975.975 0 0 0-1.35-.24c-.44.31-.54.91-.24 1.35l1.26 1.79-7.5 5.27-3.89-2.1a.964.964 0 0 0-1.02.06l-7.7 5.4-5.28 3.71a.96.96 0 0 0-1.31-.2l-17.66 12.4c-.68.48-.98 1.31-.82 2.08l-3.14 4.14-2.98-.01c-.26 0-.51.1-.69.29L.28 49.04c-.18.19-.28.44-.28.7.01.26.12.51.31.69l7.1 6.51c.18.16.41.25.66.25.04 0 .08 0 .12-.01.28-.03.53-.19.69-.43l9.99-15.02c.01 0 .03.01.04.01a1.845 1.845 0 0 0 1.08-.13l.34.38a9.284 9.284 0 0 1 2.09 3.97l1.03 4.2c.11.44.5.74.94.74.06 0 .12-.01.18-.02l4.57-.87c.5-.1.85-.57.78-1.08l-1.08-8.16 4.6-3.23c6.21 5.06 13.45 5.49 15.64 5.49.36 0 .58-.01.64-.01.52-.03.92-.46.91-.98l-.05-6.88c0-.28-.13-.55-.35-.74a.96.96 0 0 0-.78-.21c-6.46 1.08-10.65-2.96-12.12-4.69l.73-.51c.21-.15.35-.37.4-.63a.937.937 0 0 0-.14-.67l5.28-3.7 18.32-12.86L63.59 10c.44-.3.54-.91.23-1.35zM7.89 54.75l-5.53-5.06 6.78-6.89 3.05.01c.3 0 .59-.14.77-.38l2.95-3.89 1.41 2.01-9.43 14.2zm11.43-14.92c-.02.01-.04.01-.06.01-.05-.06-.09-.11-.16-.16l-2.23-3.18c-.03-.07-.06-.14-.11-.2 0-.02.02-.04.04-.06L33.66 24.4l2.52 3.59-11.4 8-5.46 3.84zm5.81 8.99-.81-3.3c-.44-1.78-1.31-3.44-2.54-4.8l-.14-.15 3.45-2.43 1.79 2.55 1.01 7.6-2.76.53zm2.93-9.84-1.37-1.96 1.25-.88 1.37 1.96-1.25.88zm2.84-1.99-1.37-1.96.81-.57a21.5 21.5 0 0 0 1.63 1.77l-1.07.76zm17.78-.7.04 4.81c-2.74-.08-11-.93-16.78-7.76l3.83-2.69c1.54 1.86 5.99 6.28 12.91 5.64zM37.24 26.13l-1.47-2.09 4.48-3.14 1.47 2.09-4.48 3.14zm6.07-4.26-1.47-2.09 6.41-4.5 2.51 1.36-7.45 5.23z" fill="#ffffff" class="color000000 svgShape"></path><path d="M25.61 32.73a.966.966 0 0 0-1.35-.24l-3 2.1c-.44.31-.54.91-.24 1.35a.964.964 0 0 0 1.35.23l3-2.1c.44-.29.55-.9.24-1.34z" fill="#ffffff" class="color000000 svgShape"></path></svg>